<svg width="71" height="73" viewBox="0 0 71 73" fill="none" xmlns="http://www.w3.org/2000/svg">
<path fill-rule="evenodd" clip-rule="evenodd" d="M2.88281 7.64141C2.88281 3.66496 6.10636 0.441406 10.0828 0.441406H60.4828C64.4593 0.441406 67.6828 3.66496 67.6828 7.64141V65.2414C67.6828 69.2178 64.4593 72.4414 60.4828 72.4414H10.0828C6.10636 72.4414 2.88281 69.2179 2.88281 65.2414V7.64141ZM19.0828 5.84141C19.0828 7.33257 17.874 8.54141 16.3828 8.54141C14.8916 8.54141 13.6828 7.33257 13.6828 5.84141C13.6828 4.35024 14.8916 3.14141 16.3828 3.14141C17.874 3.14141 19.0828 4.35024 19.0828 5.84141ZM54.1828 8.54141C55.674 8.54141 56.8828 7.33257 56.8828 5.84141C56.8828 4.35024 55.674 3.14141 54.1828 3.14141C52.6916 3.14141 51.4828 4.35024 51.4828 5.84141C51.4828 7.33257 52.6916 8.54141 54.1828 8.54141Z" fill="white"/>
<path d="M7.32976 72.441H63.2411C67.5324 72.441 70.871 68.7109 70.3971 64.4459L67.6854 40.041H2.88545L0.173797 64.4459C-0.300096 68.7109 3.03848 72.441 7.32976 72.441Z" fill="#66F0E3"/>
<path opacity="0.4" d="M70.3945 64.4459L67.6828 40.041H2.88281L35.2828 72.441H63.2385C67.5298 72.441 70.8684 68.7109 70.3945 64.4459Z" fill="url(#paint0_linear)"/>
<path d="M65.1668 11.2422H5.4008C2.15271 11.2422 -0.360381 14.089 0.0424951 17.312L2.88377 40.0422H67.6838L70.5251 17.312C70.9279 14.089 68.4148 11.2422 65.1668 11.2422Z" fill="#0BC4B8"/>
<path d="M65.1668 11.2422H5.4008C2.15271 11.2422 -0.360381 14.089 0.0424951 17.312L2.88377 40.0422H67.6838L70.5251 17.312C70.9279 14.089 68.4148 11.2422 65.1668 11.2422Z" fill="url(#paint1_linear)"/>
<defs>
<linearGradient id="paint0_linear" x1="36.6611" y1="40.041" x2="36.6611" y2="72.441" gradientUnits="userSpaceOnUse">
<stop stop-color="#0BC3B8"/>
<stop offset="1" stop-color="#0BC3B8" stop-opacity="0"/>
</linearGradient>
<linearGradient id="paint1_linear" x1="35.2838" y1="11.2422" x2="35.2838" y2="40.0422" gradientUnits="userSpaceOnUse">
<stop stop-color="#0BC3B8" stop-opacity="0.4"/>
<stop offset="1" stop-color="#0BC3B8"/>
</linearGradient>
</defs>
</svg>
