<svg width="80" height="81" viewBox="0 0 80 81" fill="none" xmlns="http://www.w3.org/2000/svg">
<circle cx="40" cy="40.4414" r="40" fill="#C4C4C4"/>
<circle cx="40" cy="40.4414" r="40" fill="url(#paint0_linear)"/>
<circle opacity="0.4" cx="40" cy="40.4414" r="26" stroke="white" stroke-width="4"/>
<path opacity="0.4" d="M54 40.4414C54 48.1734 47.732 54.4414 40 54.4414C32.268 54.4414 26 48.1734 26 40.4414C26 32.7094 32.268 26.4414 40 26.4414C47.732 26.4414 54 32.7094 54 40.4414Z" stroke="white" stroke-width="4"/>
<g filter="url(#filter0_d)">
<path d="M57.4 53.0414L62.2 52.0414L68 56.2414L63.2 57.2414V62.4414L57.4 58.2414V53.0414Z" fill="white"/>
<path d="M40 40.4414L57.4 53.0414M63.2 57.2414L57.4 53.0414M63.2 57.2414L68 56.2414L62.2 52.0414L57.4 53.0414M63.2 57.2414V62.4414L57.4 58.2414V53.0414" stroke="white" stroke-width="4" stroke-linecap="round" stroke-linejoin="round"/>
</g>
<defs>
<filter id="filter0_d" x="34" y="38.4414" width="40" height="34" filterUnits="userSpaceOnUse" color-interpolation-filters="sRGB">
<feFlood flood-opacity="0" result="BackgroundImageFix"/>
<feColorMatrix in="SourceAlpha" type="matrix" values="0 0 0 0 0 0 0 0 0 0 0 0 0 0 0 0 0 0 127 0" result="hardAlpha"/>
<feOffset dy="4"/>
<feGaussianBlur stdDeviation="2"/>
<feColorMatrix type="matrix" values="0 0 0 0 0.0901961 0 0 0 0 0.0901961 0 0 0 0 0.160784 0 0 0 0.16 0"/>
<feBlend mode="normal" in2="BackgroundImageFix" result="effect1_dropShadow"/>
<feBlend mode="normal" in="SourceGraphic" in2="effect1_dropShadow" result="shape"/>
</filter>
<linearGradient id="paint0_linear" x1="40" y1="0.441406" x2="40" y2="80.4414" gradientUnits="userSpaceOnUse">
<stop stop-color="#0BC3B8" stop-opacity="0.4"/>
<stop offset="1" stop-color="#0BC3B8"/>
</linearGradient>
</defs>
</svg>
