<svg width="80" height="80" viewBox="0 0 80 80" fill="none" xmlns="http://www.w3.org/2000/svg">
<path d="M70.3995 32.8878L67.9986 30.4878C67.0649 29.5545 66.5314 28.2878 66.5314 26.9578V23.5212C66.5314 17.9879 62.0298 13.4912 56.4944 13.4912H53.0598C51.726 13.4912 50.4589 12.9545 49.5252 12.0212L47.091 9.59118C43.1562 5.69118 36.7873 5.69118 32.8859 9.62118L30.485 12.0212C29.5513 12.9545 28.2842 13.4912 26.9504 13.4912H23.5158C17.9805 13.4912 13.4788 17.9879 13.4788 23.5212V26.9212C13.4788 28.2878 12.9453 29.5545 12.0116 30.4878L9.57741 32.9245C5.676 36.8545 5.70934 43.2245 9.61076 47.1212L12.0116 49.4878C12.9453 50.4545 13.4788 51.7212 13.4788 53.0578V56.4879C13.4788 62.0212 17.9805 66.5245 23.5158 66.5245H26.9504C28.2842 66.5245 29.5513 67.0545 30.485 67.9878L32.9192 70.4245C34.8866 72.3578 37.4542 73.3212 40.0218 73.3212C42.5894 73.3212 45.157 72.3578 47.1244 70.3878L49.5252 67.9878C50.4589 67.0545 51.726 66.5245 53.0598 66.5245H56.4944C62.0298 66.5245 66.5314 62.0212 66.5314 56.4879V53.0578C66.5314 51.7212 67.0649 50.4545 67.9986 49.5212L70.3661 47.1545C70.3995 47.1212 70.4328 47.0912 70.4662 47.0545C72.3335 45.1578 73.3672 42.6212 73.3339 39.9545C73.3339 37.2878 72.3001 34.7545 70.3995 32.8878Z" fill="#66F0E3"/>
<path d="M70.3995 32.8878L67.9986 30.4878C67.0649 29.5545 66.5314 28.2878 66.5314 26.9578V23.5212C66.5314 17.9879 62.0298 13.4912 56.4944 13.4912H53.0598C51.726 13.4912 50.4589 12.9545 49.5252 12.0212L47.091 9.59118C43.1562 5.69118 36.7873 5.69118 32.8859 9.62118L30.485 12.0212C29.5513 12.9545 28.2842 13.4912 26.9504 13.4912H23.5158C17.9805 13.4912 13.4788 17.9879 13.4788 23.5212V26.9212C13.4788 28.2878 12.9453 29.5545 12.0116 30.4878L9.57741 32.9245C5.676 36.8545 5.70934 43.2245 9.61076 47.1212L12.0116 49.4878C12.9453 50.4545 13.4788 51.7212 13.4788 53.0578V56.4879C13.4788 62.0212 17.9805 66.5245 23.5158 66.5245H26.9504C28.2842 66.5245 29.5513 67.0545 30.485 67.9878L32.9192 70.4245C34.8866 72.3578 37.4542 73.3212 40.0218 73.3212C42.5894 73.3212 45.157 72.3578 47.1244 70.3878L49.5252 67.9878C50.4589 67.0545 51.726 66.5245 53.0598 66.5245H56.4944C62.0298 66.5245 66.5314 62.0212 66.5314 56.4879V53.0578C66.5314 51.7212 67.0649 50.4545 67.9986 49.5212L70.3661 47.1545C70.3995 47.1212 70.4328 47.0912 70.4662 47.0545C72.3335 45.1578 73.3672 42.6212 73.3339 39.9545C73.3339 37.2878 72.3001 34.7545 70.3995 32.8878Z" fill="url(#paint0_linear)"/>
<path d="M55 30L35 50L25 40" stroke="white" stroke-width="4" stroke-linecap="round" stroke-linejoin="round"/>
<defs>
<linearGradient id="paint0_linear" x1="40.0013" y1="6.66992" x2="40.0013" y2="73.3212" gradientUnits="userSpaceOnUse">
<stop stop-color="#0BC3B8" stop-opacity="0.4"/>
<stop offset="1" stop-color="#0BC3B8"/>
</linearGradient>
</defs>
</svg>
